<?xml version="1.0" encoding="utf-8"?>
<!-- Generator: Adobe Illustrator 21.1.0, SVG Export Plug-In . SVG Version: 6.00 Build 0)  -->
<svg version="1.1" id="Layer_1" xmlns="http://www.w3.org/2000/svg" xmlns:xlink="http://www.w3.org/1999/xlink" x="0px" y="0px"
	 viewBox="0 0 447.3 107.7" style="enable-background:new 0 0 447.3 107.7;" xml:space="preserve">
<style type="text/css">
	.st0{fill-rule:evenodd;clip-rule:evenodd;fill:#FF8B00;}
	.st1{fill-rule:evenodd;clip-rule:evenodd;fill:#F05A2D;}
	.st2{fill:#FF8B00;}
	.st3{fill:#FFFFFF;}
</style>
<path class="st0" d="M53.7,76.2c0,14.8-12,26.8-26.8,26.8C12,103.1,0,91.1,0,76.2c0-14.8,12-26.8,26.8-26.8
	C41.6,49.4,53.7,61.4,53.7,76.2z M26.9,60.9c-8.7,0-15.7,7-15.7,15.7c0,8.7,7,15.7,15.7,15.7c8.7,0,15.7-7,15.7-15.7
	C42.5,67.9,35.5,60.9,26.9,60.9z"/>
<circle class="st1" cx="26.8" cy="76.8" r="10.8"/>
<polygon class="st0" points="105.8,87.2 117.4,76.8 120.6,92 123.8,107.3 109,102.4 94.2,97.6 "/>
<path class="st0" d="M135.2,51.6c0,28.4-23.1,51.5-51.5,51.5c-16.4,0-31.1-7.7-40.5-19.7c9.2-7.2-1.8-21.4-10.3-23.8c0,0,0,0-0.1,0
	c-0.4-2.6-0.6-5.3-0.6-8c0-28.4,23.1-51.5,51.5-51.5C112.2,0.1,135.2,23.1,135.2,51.6z M77.7,46.3c1-0.6,1.8-0.9,2.6-0.9
	c0.7,0,1,0.4,1,1.1c0,0.7-0.1,1.5-0.4,2.3c-5.7,18.5-8.5,30.1-8.5,34.8c0,1.5,0.4,2.6,1.2,3.5c0.8,0.8,1.8,1.3,3.2,1.3
	c1.5,0,3.5-0.7,5.9-2.1c2.4-1.4,6.2-4.5,11.4-9.4l-2.2-2.2c-5,4.7-8.1,7.1-9.3,7.1c-0.3,0-0.6-0.2-0.9-0.5c-0.3-0.4-0.4-0.8-0.4-1.3
	c0-2.8,2-10.9,6-24.4c2.5-8.2,3.7-12.9,3.7-14c0-0.9-0.3-1.6-1-2.2c-0.6-0.5-1.6-0.8-2.8-0.8c-2.2,0-4.9,0.9-8,2.6
	c-3.1,1.8-6.6,4.7-10.4,8.9l2.5,1.9C74.5,48.9,76.7,46.9,77.7,46.3z M89.7,16.2c-1.1,1.2-1.7,2.6-1.7,4.4c0,1.3,0.4,2.3,1.1,3.1
	c0.8,0.8,1.7,1.2,2.8,1.2c1.4,0,2.7-0.6,3.9-1.9c1.2-1.3,1.7-2.7,1.7-4.4c0-1.2-0.4-2.2-1.1-3c-0.8-0.8-1.7-1.2-2.9-1.2
	C92.1,14.4,90.8,15,89.7,16.2z"/>
<g>
	<path class="st2" d="M200.5,22.4c-2.3-2.1-5.1-3.9-8.2-3.9c-4.2,0-7.6,3.3-7.6,7.5c0,4.2,3.6,7.5,7.8,7.5c3.2,0,5.8-1.4,8-3.6
		l-0.4,14.4c-2.3,1.1-7.5,1.5-10,1.5c-11,0-19.6-8.5-19.6-19.5c0-11.3,8.8-20.3,20.1-20.3c3.2,0,6.4,0.6,9.4,1.6L200.5,22.4z"/>
	<path class="st2" d="M246.7,26.2c0,12.4-9.6,19.8-21.3,19.8c-11.8,0-21.3-7.4-21.3-19.8c0-12.1,9.6-20,21.3-20
		C237.1,6.2,246.7,14,246.7,26.2z M218.2,26.4c0,4.4,3,7.4,7.2,7.4s7.2-3,7.2-7.4c0-4.1-2.8-7.5-7.2-7.5S218.2,22.3,218.2,26.4z"/>
	<path class="st2" d="M250.6,6.8h14V33h11.8v12.4h-25.8V6.8z"/>
	<path class="st2" d="M279.2,6.8h14V33H305v12.4h-25.8V6.8z"/>
	<path class="st2" d="M308.6,6.8h25.9v10.5h-11.8V21h10.8v10h-10.8v3.8H335v10.5h-26.3V6.8z"/>
	<path class="st2" d="M380.5,22.6c-0.1,6.3-0.1,11.6-4.7,16.5c-4.1,4.4-10.4,6.9-16.4,6.9c-11.8,0-21.3-7.3-21.3-19.6
		c0-12.6,9.3-20.1,21.4-20.1c6.7,0,15.9,3.3,18.9,9.9l-13.1,4.8c-1.1-1.9-3.1-3-5.3-3c-5,0-7.8,4.3-7.8,8.9c0,4.2,2.7,8.2,7.2,8.2
		c2.2,0,5-1,5.7-3.4h-6.3v-9.1H380.5z"/>
	<path class="st2" d="M384.1,6.8H410v10.5h-11.8V21H409v10h-10.8v3.8h12.2v10.5h-26.3V6.8z"/>
</g>
<g>
	<path class="st2" d="M340.7,77.4c-0.1,6.3-0.1,11.6-4.7,16.5c-4.1,4.4-10.4,6.9-16.4,6.9c-11.8,0-21.3-7.3-21.3-19.6
		c0-12.6,9.3-20.1,21.4-20.1c6.7,0,15.9,3.3,18.9,9.9l-13.1,4.8c-1.1-1.9-3.1-3-5.3-3c-5,0-7.8,4.3-7.8,8.9c0,4.2,2.7,8.2,7.2,8.2
		c2.2,0,5-1,5.7-3.4h-6.3v-9.1H340.7z"/>
	<path class="st2" d="M345.3,61.5h25.9V72h-11.8v3.7h10.8v10h-10.8v3.8h12.2v10.5h-26.3V61.5z"/>
	<path class="st2" d="M377.2,61.5h25.9V72h-11.8v3.7h10.8v10h-10.8v3.8h12.2v10.5h-26.3V61.5z"/>
	<path class="st2" d="M408.4,61.5h13.7l-0.3,16.7h0.3c0.3-1.6,1.2-3,1.9-4.3l6.8-12.4h15.3L434,80.3l13.3,19.8h-16.3l-6.6-11.7
		c-0.8-1.5-2-2.9-2.4-4.5h-0.3l0.3,16.2h-13.7V61.5z"/>
</g>
<g>
	<path class="st3" d="M172.9,61.5h14v38.6h-14V61.5z"/>
	<path class="st3" d="M193.2,61.5h13.4l12.6,21.4h0.4c-0.6-3.2-1.2-6.5-1.2-9.8V61.5h13.4v38.6h-13.4l-12.3-20.3h-0.4
		c0.5,2.7,0.9,5.2,0.9,7.7v12.5h-13.4V61.5z"/>
	<path class="st3" d="M238,61.5h25.8v11h-11.7v4h10.3v10h-10.3v13.5H238V61.5z"/>
	<path class="st3" d="M310,80.9c0,12.4-9.6,19.8-21.3,19.8c-11.8,0-21.3-7.4-21.3-19.8c0-12.1,9.6-20,21.3-20S310,68.8,310,80.9z
		 M281.5,81.1c0,4.4,3,7.4,7.2,7.4s7.2-3,7.2-7.4c0-4.1-2.8-7.5-7.2-7.5S281.5,77,281.5,81.1z"/>
</g>
</svg>
