<?xml version="1.0" encoding="utf-8"?>
<!-- Generator: Adobe Illustrator 21.1.0, SVG Export Plug-In . SVG Version: 6.00 Build 0)  -->
<svg version="1.1" id="Layer_1" xmlns="http://www.w3.org/2000/svg" xmlns:xlink="http://www.w3.org/1999/xlink" x="0px" y="0px"
	 viewBox="0 0 1000 107.7" style="enable-background:new 0 0 1000 107.7;" xml:space="preserve">
<style type="text/css">
	.st0{fill-rule:evenodd;clip-rule:evenodd;fill:#FF8B00;}
	.st1{fill-rule:evenodd;clip-rule:evenodd;fill:#F05A2D;}
	.st2{fill:#FF8B00;}
	.st3{fill:#FFFFFF;}
</style>
<path class="st0" d="M54.1,76.5c0,14.9-12.1,27-27,27c-14.9,0-27-12.1-27-27c0-14.9,12.1-27,27-27C42,49.6,54.1,61.6,54.1,76.5z
	 M27.2,61.1c-8.7,0-15.7,7-15.7,15.7c0,8.7,7,15.7,15.7,15.7c8.7,0,15.7-7,15.7-15.7C42.9,68.2,35.9,61.1,27.2,61.1z"/>
<circle class="st1" cx="27.1" cy="77.1" r="10.9"/>
<polygon class="st0" points="106.5,87.5 118.1,77.1 121.3,92.4 124.5,107.7 109.7,102.8 94.8,97.9 "/>
<path class="st0" d="M136,51.7c0,28.6-23.2,51.7-51.7,51.7c-16.5,0-31.2-7.7-40.7-19.8c9.3-7.3-1.8-21.5-10.3-23.9c0,0,0,0-0.1,0
	c-0.4-2.6-0.6-5.3-0.6-8C32.6,23.2,55.7,0,84.3,0C112.9,0,136,23.2,136,51.7z M78.2,46.5c1-0.6,1.8-0.9,2.6-0.9c0.7,0,1,0.4,1,1.1
	c0,0.7-0.1,1.5-0.4,2.3c-5.7,18.5-8.6,30.2-8.6,35c0,1.5,0.4,2.7,1.2,3.5c0.8,0.8,1.8,1.3,3.2,1.3c1.5,0,3.5-0.7,5.9-2.1
	c2.4-1.4,6.2-4.5,11.4-9.4l-2.2-2.2c-5,4.7-8.2,7.1-9.4,7.1c-0.3,0-0.6-0.2-0.9-0.5c-0.3-0.4-0.4-0.8-0.4-1.3c0-2.8,2-11,6-24.5
	c2.5-8.3,3.7-13,3.7-14.1c0-0.9-0.3-1.6-1-2.2c-0.6-0.5-1.6-0.8-2.8-0.8c-2.2,0-4.9,0.9-8,2.7c-3.1,1.8-6.6,4.8-10.4,9l2.5,1.9
	C75.1,49,77.2,47.1,78.2,46.5z M90.2,16.2c-1.1,1.2-1.7,2.7-1.7,4.4c0,1.3,0.4,2.3,1.1,3.1c0.8,0.8,1.7,1.2,2.9,1.2
	c1.4,0,2.8-0.6,3.9-1.9c1.2-1.3,1.7-2.8,1.7-4.4c0-1.2-0.4-2.2-1.1-3c-0.8-0.8-1.7-1.2-2.9-1.2C92.7,14.4,91.4,15,90.2,16.2z"/>
<g>
	<path class="st2" d="M232.9,44.5c-3.5-3.3-7.9-6-12.8-6c-6.5,0-11.8,5.2-11.8,11.7c0,6.6,5.6,11.7,12.2,11.7c5,0,9-2.1,12.5-5.6
		l-0.6,22.4c-3.5,1.7-11.6,2.4-15.5,2.4c-17.1,0-30.4-13.3-30.4-30.4c0-17.5,13.7-31.5,31.3-31.5c4.9,0,10,0.9,14.6,2.5L232.9,44.5z
		"/>
	<path class="st2" d="M304.8,50.3c0,19.2-14.9,30.8-33.1,30.8c-18.3,0-33.1-11.5-33.1-30.8c0-18.8,14.9-31.1,33.1-31.1
		C289.8,19.3,304.8,31.5,304.8,50.3z M260.4,50.6c0,6.8,4.6,11.5,11.2,11.5s11.2-4.7,11.2-11.5c0-6.4-4.3-11.7-11.2-11.7
		C264.7,39,260.4,44.3,260.4,50.6z"/>
	<path class="st2" d="M310.9,20.2h21.8v40.7h18.3v19.2h-40V20.2z"/>
	<path class="st2" d="M355.3,20.2h21.8v40.7h18.3v19.2h-40V20.2z"/>
	<path class="st2" d="M401,20.2h40.3v16.4h-18.4v5.7h16.8v15.6h-16.8v5.9h19v16.4H401V20.2z"/>
	<path class="st2" d="M512.6,44.8c-0.2,9.8-0.2,18-7.2,25.6c-6.4,6.9-16.1,10.6-25.4,10.6c-18.3,0-33.1-11.3-33.1-30.5
		c0-19.5,14.4-31.3,33.2-31.3c10.4,0,24.7,5.2,29.4,15.4l-20.3,7.5c-1.7-3-4.8-4.6-8.3-4.6c-7.8,0-12.1,6.7-12.1,13.9
		c0,6.6,4.1,12.8,11.2,12.8c3.4,0,7.8-1.6,8.8-5.2H479V44.8H512.6z"/>
	<path class="st2" d="M518.2,20.2h40.3v16.4h-18.4v5.7h16.8v15.6h-16.8v5.9h19v16.4h-40.9V20.2z"/>
</g>
<g>
	<path class="st2" d="M834.5,44.8c-0.2,9.8-0.2,18-7.2,25.6c-6.4,6.9-16.1,10.6-25.4,10.6c-18.3,0-33.1-11.3-33.1-30.5
		c0-19.5,14.4-31.3,33.2-31.3c10.4,0,24.7,5.2,29.4,15.4l-20.3,7.5c-1.7-3-4.8-4.6-8.3-4.6c-7.8,0-12.1,6.7-12.1,13.9
		c0,6.6,4.1,12.8,11.2,12.8c3.4,0,7.8-1.6,8.8-5.2h-9.9V44.8H834.5z"/>
	<path class="st2" d="M841.7,20.2H882v16.4h-18.4v5.7h16.8v15.6h-16.8v5.9h19v16.4h-40.9V20.2z"/>
	<path class="st2" d="M891.2,20.2h40.3v16.4h-18.4v5.7h16.8v15.6h-16.8v5.9h19v16.4h-40.9V20.2z"/>
	<path class="st2" d="M939.7,20.2h21.2l-0.5,26h0.5c0.5-2.5,1.8-4.6,3-6.8l10.5-19.2h23.8l-18.8,29.2l20.7,30.8h-25.3L964.6,62
		c-1.3-2.3-3.2-4.5-3.7-7h-0.5l0.5,25.1h-21.2V20.2z"/>
</g>
<g>
	<path class="st3" d="M573.7,20.2h21.8v59.9h-21.8V20.2z"/>
	<path class="st3" d="M605.3,20.2h20.9l19.5,33.2h0.6c-0.9-5-1.8-10.2-1.8-15.3v-18h20.8v59.9h-20.8l-19.1-31.5h-0.6
		c0.7,4.1,1.4,8,1.4,12v19.5h-20.8V20.2z"/>
	<path class="st3" d="M674.9,20.2H715v17.2h-18.2v6.2h16v15.6h-16v21h-21.9V20.2z"/>
	<path class="st3" d="M786.8,50.3c0,19.2-14.9,30.8-33.1,30.8c-18.3,0-33.1-11.5-33.1-30.8c0-18.8,14.9-31.1,33.1-31.1
		S786.8,31.5,786.8,50.3z M742.5,50.6c0,6.8,4.6,11.5,11.2,11.5c6.6,0,11.2-4.7,11.2-11.5c0-6.4-4.3-11.7-11.2-11.7
		S742.5,44.3,742.5,50.6z"/>
</g>
</svg>
