<svg id="Layer_1" data-name="Layer 1" xmlns="http://www.w3.org/2000/svg" viewBox="0 0 100 79.3"><defs><style>.cls-1{fill:#ff8b00;fill-rule:evenodd;}.cls-2{fill:#f05a2d;}</style></defs><title>cig speech bubble</title><path class="cls-1" d="M39.68,66.8A19.84,19.84,0,1,1,19.84,47,19.84,19.84,0,0,1,39.68,66.8ZM19.87,55.48A11.58,11.58,0,1,0,31.45,67.07,11.58,11.58,0,0,0,19.87,55.48Z" transform="translate(0 -10.48)"/><circle class="cls-2" cx="19.84" cy="56.72" r="7.99"/><polygon class="cls-1" points="78.23 64.41 86.83 56.72 89.19 68.01 91.55 79.3 80.59 75.7 69.64 72.1 78.23 64.41"/><path class="cls-1" d="M100,48.56A38.08,38.08,0,0,1,32,72.07c6.83-5.34-1.3-15.81-7.62-17.6h-.06A38.08,38.08,0,1,1,100,48.56ZM57.43,44.68A3.72,3.72,0,0,1,59.35,44q.76,0,.76.84a6,6,0,0,1-.29,1.73q-6.32,20.48-6.32,25.74a3.62,3.62,0,0,0,.86,2.57,3,3,0,0,0,2.34.93A9.43,9.43,0,0,0,61,74.3q2.65-1.52,8.43-7l-1.64-1.6Q62.25,71,60.91,71a.81.81,0,0,1-.63-.4,1.62,1.62,0,0,1-.3-1q0-3.07,4.45-18,2.73-9.14,2.73-10.36a2,2,0,0,0-.72-1.6A3.17,3.17,0,0,0,64.39,39a12.63,12.63,0,0,0-5.91,2,32.81,32.81,0,0,0-7.68,6.59L52.65,49A43.28,43.28,0,0,1,57.43,44.68ZM66.3,22.41a4.58,4.58,0,0,0-1.22,3.22A3.22,3.22,0,0,0,65.92,28a2.79,2.79,0,0,0,2.11.88,3.83,3.83,0,0,0,2.89-1.41,4.7,4.7,0,0,0,1.29-3.27,3,3,0,0,0-.84-2.21,2.88,2.88,0,0,0-2.15-.86A3.82,3.82,0,0,0,66.3,22.41Z" transform="translate(0 -10.48)"/></svg>